<svg width="91" height="48" viewBox="0 0 91 48" fill="none" xmlns="http://www.w3.org/2000/svg">
<path d="M17 28C18.1046 28 19.0454 27.0899 18.7951 26.0141C18.1723 23.338 16.0897 22 12 22C7.91032 22 5.8277 23.338 5.20492 26.0141C4.95455 27.0899 5.89543 28 7 28H17Z" stroke="white" stroke-width="2" stroke-linecap="round" stroke-linejoin="round"/>
<path fill-rule="evenodd" clip-rule="evenodd" d="M12 19C14 19 15 18 15 15.5C15 13 14 12 12 12C10 12 9 13 9 15.5C9 18 10 19 12 19Z" stroke="white" stroke-width="2" stroke-linecap="round" stroke-linejoin="round"/>
<ellipse cx="12" cy="15.5" rx="3" ry="3.5" fill="white"/>
<path d="M5.5 25L5 26.5V27L6.5 27.5C7.33333 27.6667 9.1 28 9.5 28H14.5H18L18.5 26.5V25L17.5 23.5L15 22.5L12.5 22C11.3333 22.1667 8.9 22.5 8.5 22.5C8.1 22.5 7.33333 23.1667 7 23.5L5.5 25Z" fill="white" stroke="white"/>
<path d="M28.992 17.576C30.0053 17.576 30.8533 17.672 31.536 17.864C32.2293 18.0453 32.7467 18.3493 33.088 18.776C33.44 19.192 33.616 19.7573 33.616 20.472C33.616 20.8987 33.5467 21.288 33.408 21.64C33.2693 21.992 33.0667 22.28 32.8 22.504C32.544 22.728 32.2293 22.872 31.856 22.936V23.016C32.24 23.0907 32.5867 23.224 32.896 23.416C33.2053 23.608 33.4507 23.8853 33.632 24.248C33.8133 24.6107 33.904 25.0907 33.904 25.688C33.904 26.3813 33.7333 26.9787 33.392 27.48C33.0613 27.9707 32.5813 28.3493 31.952 28.616C31.3227 28.872 30.576 29 29.712 29H25.44V17.576H28.992ZM29.264 22.104C29.968 22.104 30.4533 21.992 30.72 21.768C30.9973 21.544 31.136 21.2187 31.136 20.792C31.136 20.3547 30.976 20.04 30.656 19.848C30.336 19.656 29.8293 19.56 29.136 19.56H27.856V22.104H29.264ZM27.856 24.024V27H29.44C30.1653 27 30.672 26.8613 30.96 26.584C31.248 26.296 31.392 25.9173 31.392 25.448C31.392 25.16 31.328 24.9093 31.2 24.696C31.0827 24.4827 30.8747 24.3173 30.576 24.2C30.2773 24.0827 29.872 24.024 29.36 24.024H27.856ZM43.934 24.616C43.934 25.3413 43.8327 25.9867 43.63 26.552C43.438 27.1173 43.1553 27.5973 42.782 27.992C42.4193 28.376 41.9767 28.6693 41.454 28.872C40.9313 29.064 40.3393 29.16 39.678 29.16C39.07 29.16 38.5047 29.064 37.982 28.872C37.47 28.6693 37.0273 28.376 36.654 27.992C36.2807 27.5973 35.9873 27.1173 35.774 26.552C35.5713 25.9867 35.47 25.3413 35.47 24.616C35.47 23.6453 35.6407 22.8293 35.982 22.168C36.3233 21.496 36.814 20.984 37.454 20.632C38.094 20.28 38.8513 20.104 39.726 20.104C40.5473 20.104 41.2727 20.28 41.902 20.632C42.5313 20.984 43.0273 21.496 43.39 22.168C43.7527 22.8293 43.934 23.6453 43.934 24.616ZM37.902 24.616C37.902 25.192 37.9607 25.6773 38.078 26.072C38.206 26.456 38.4033 26.7493 38.67 26.952C38.9367 27.144 39.2833 27.24 39.71 27.24C40.1367 27.24 40.478 27.144 40.734 26.952C41.0007 26.7493 41.1927 26.456 41.31 26.072C41.438 25.6773 41.502 25.192 41.502 24.616C41.502 24.04 41.438 23.56 41.31 23.176C41.1927 22.792 41.0007 22.504 40.734 22.312C40.4673 22.12 40.1207 22.024 39.694 22.024C39.0647 22.024 38.606 22.2427 38.318 22.68C38.0407 23.1067 37.902 23.752 37.902 24.616ZM54.2723 16.504C54.2189 17.0587 54.0643 17.5493 53.8083 17.976C53.5523 18.392 53.1523 18.7173 52.6083 18.952C52.0643 19.1867 51.3336 19.304 50.4163 19.304C49.4776 19.304 48.7416 19.192 48.2083 18.968C47.6856 18.7333 47.3123 18.408 47.0883 17.992C46.8643 17.576 46.7309 17.08 46.6883 16.504H48.8163C48.8696 17.0907 49.0189 17.48 49.2643 17.672C49.5096 17.864 49.9096 17.96 50.4643 17.96C50.9229 17.96 51.2963 17.8587 51.5843 17.656C51.8829 17.4427 52.0589 17.0587 52.1123 16.504H54.2723ZM48.2083 23.72C48.2083 23.9013 48.1976 24.1253 48.1763 24.392C48.1656 24.6587 48.1496 24.9307 48.1283 25.208C48.1176 25.4853 48.1016 25.7307 48.0803 25.944C48.0589 26.1573 48.0429 26.3067 48.0323 26.392L52.0643 20.264H54.9283V29H52.6243V25.512C52.6243 25.224 52.6349 24.9093 52.6562 24.568C52.6776 24.216 52.6989 23.8907 52.7203 23.592C52.7523 23.2827 52.7736 23.048 52.7843 22.888L48.7682 29H45.9043V20.264H48.2083V23.72ZM64.6519 22.056H61.7879V29H59.4039V22.056H56.5399V20.264H64.6519V22.056ZM68.5676 23.72C68.5676 23.9013 68.557 24.1253 68.5356 24.392C68.525 24.6587 68.509 24.9307 68.4876 25.208C68.477 25.4853 68.461 25.7307 68.4396 25.944C68.4183 26.1573 68.4023 26.3067 68.3916 26.392L72.4236 20.264H75.2876V29H72.9836V25.512C72.9836 25.224 72.9943 24.9093 73.0156 24.568C73.037 24.216 73.0583 23.8907 73.0796 23.592C73.1116 23.2827 73.133 23.048 73.1436 22.888L69.1276 29H66.2636V20.264H68.5676V23.72Z" fill="white"/>
<line x1="79.7071" y1="21.2929" x2="85.7071" y2="27.2929" stroke="white" stroke-width="2"/>
<line y1="-1" x2="8.48528" y2="-1" transform="matrix(-0.707107 0.707107 0.707107 0.707107 91 22)" stroke="white" stroke-width="2"/>
</svg>
